<?xml version="1.0" encoding="utf-8"?>
<!-- Generator: Adobe Illustrator 22.1.0, SVG Export Plug-In . SVG Version: 6.00 Build 0)  -->
<svg version="1.1" id="Layer_1" xmlns="http://www.w3.org/2000/svg" xmlns:xlink="http://www.w3.org/1999/xlink" x="0px" y="0px"
	 viewBox="0 0 238 282.8" style="enable-background:new 0 0 238 282.8;" xml:space="preserve">
<style type="text/css">
	.st0{fill:#67A969;}
</style>
<g>
	<path class="st0" d="M82.4,28.9l12.8,4c-0.9,3.7-2.3,6.8-4.2,9.3c-1.9,2.5-4.2,4.4-7,5.6c-2.8,1.3-6.4,1.9-10.7,1.9
		c-5.3,0-9.5-0.8-12.9-2.3c-3.3-1.5-6.2-4.2-8.6-8c-2.4-3.8-3.6-8.7-3.6-14.7c0-8,2.1-14.1,6.4-18.3C58.7,2.1,64.7,0,72.4,0
		c6.1,0,10.8,1.2,14.3,3.7c3.5,2.5,6,6.3,7.7,11.5L81,18.1c-0.5-1.5-0.9-2.5-1.4-3.2c-0.8-1.1-1.8-2-3-2.6c-1.2-0.6-2.5-0.9-4-0.9
		c-3.3,0-5.9,1.3-7.7,4c-1.3,2-2,5.1-2,9.3c0,5.2,0.8,8.8,2.5,10.7c1.7,1.9,4,2.9,7,2.9c2.9,0,5.2-0.8,6.7-2.4
		C80.6,34.2,81.7,31.9,82.4,28.9"/>
	<path class="st0" d="M99.2,33.1l14.8-0.9c0.3,2.3,0.9,4,1.8,5.2c1.4,1.9,3.5,2.9,6.2,2.9c2,0,3.5-0.5,4.6-1.5
		c1.1-1,1.6-2.2,1.6-3.5c0-1.3-0.5-2.4-1.4-3.4c-1-1-3.4-1.9-7.4-2.8c-6.5-1.5-11.1-3.4-13.9-5.8c-2.8-2.4-4.2-5.5-4.2-9.2
		c0-2.5,0.7-4.8,2.2-7c1.4-2.2,3.6-3.9,6.5-5.2c2.9-1.3,6.8-1.9,11.8-1.9c6.2,0,10.8,1.2,14.1,3.5c3.2,2.3,5.2,6,5.8,11.1l-14.8,0.9
		c-0.3-2.3-1-4.1-2-5.1c-1-1.1-2.4-1.6-4.2-1.6c-1.5,0-2.6,0.4-3.4,1.1c-0.8,0.7-1.1,1.6-1.1,2.7c0,0.8,0.2,1.5,0.5,2.1
		c0.3,0.6,1.8,1.2,4.4,1.8c6.5,1.4,11.1,2.8,13.9,4.3c2.8,1.4,4.8,3.2,6.1,5.4c1.3,2.1,1.9,4.5,1.9,7.2c0,3.1-0.9,5.9-2.6,8.6
		c-1.7,2.6-4.1,4.6-7.2,5.9c-3.1,1.4-6.9,2-11.6,2c-8.2,0-13.9-1.6-17-4.7C101.4,41.9,99.6,37.9,99.2,33.1"/>
	<path class="st0" d="M147.6,33.1l14.8-0.9c0.3,2.3,0.9,4,1.8,5.2c1.4,1.9,3.5,2.9,6.1,2.9c2,0,3.5-0.5,4.6-1.5
		c1.1-1,1.6-2.2,1.6-3.5c0-1.3-0.5-2.4-1.4-3.4c-1-1-3.4-1.9-7.4-2.8c-6.5-1.5-11.1-3.4-13.9-5.8c-2.8-2.4-4.2-5.5-4.2-9.2
		c0-2.5,0.7-4.8,2.2-7c1.4-2.2,3.6-3.9,6.5-5.2C161.1,0.6,165,0,170,0c6.2,0,10.8,1.2,14.1,3.5c3.2,2.3,5.2,6,5.8,11.1l-14.8,0.9
		c-0.3-2.3-1-4.1-2-5.1c-1-1.1-2.4-1.6-4.2-1.6c-1.5,0-2.6,0.4-3.4,1.1c-0.8,0.7-1.1,1.6-1.1,2.7c0,0.8,0.2,1.5,0.5,2.1
		c0.3,0.6,1.8,1.2,4.4,1.8c6.5,1.4,11.1,2.8,13.9,4.3c2.8,1.4,4.8,3.2,6.1,5.4c1.3,2.1,1.9,4.5,1.9,7.2c0,3.1-0.9,5.9-2.6,8.6
		c-1.7,2.6-4.1,4.6-7.2,5.9c-3.1,1.4-6.9,2-11.6,2c-8.2,0-13.9-1.6-17-4.7C149.7,41.9,148,37.9,147.6,33.1"/>
	<polyline class="st0" points="35.5,67.4 27.5,107.4 190.1,107.4 185,133.2 22.3,133.2 14.4,173.1 177,173.1 167.9,218.7 
		102.4,240.4 45.6,218.7 49.5,198.9 9.6,198.9 0,246.9 94,282.8 202.3,246.9 216.6,174.7 219.5,160.3 238,67.4 35.5,67.4 	"/>
</g>
</svg>
