<svg xmlns="http://www.w3.org/2000/svg" width="67.5" height="78.56" viewBox="0 0 67.5 78.56">
  <metadata><?xpacket begin="﻿" id="W5M0MpCehiHzreSzNTczkc9d"?>
<x:xmpmeta xmlns:x="adobe:ns:meta/" x:xmptk="Adobe XMP Core 5.6-c142 79.160924, 2017/07/13-01:06:39        ">
   <rdf:RDF xmlns:rdf="http://www.w3.org/1999/02/22-rdf-syntax-ns#">
      <rdf:Description rdf:about=""/>
   </rdf:RDF>
</x:xmpmeta>
                                                                                                    
                                                                                                    
                                                                                                    
                                                                                                    
                                                                                                    
                                                                                                    
                                                                                                    
                                                                                                    
                                                                                                    
                                                                                                    
                                                                                                    
                                                                                                    
                                                                                                    
                                                                                                    
                                                                                                    
                                                                                                    
                                                                                                    
                                                                                                    
                                                                                                    
                                                                                                    
                           
<?xpacket end="w"?></metadata>
<defs>
    <style>
      .cls-1 {
        fill: #0072ee;
        fill-rule: evenodd;
      }
    </style>
  </defs>
  <path id="_" data-name="" class="cls-1" d="M1277.06,985.06a40.063,40.063,0,0,1,7.56,10.371,37.626,37.626,0,0,1,3.86,16.7,32.332,32.332,0,0,1-4.74,17.23,31.13,31.13,0,0,1-12.04,11.33,34.356,34.356,0,0,1-16.61,4.14,34.553,34.553,0,0,1-29.18-16.18,31.015,31.015,0,0,1-4.93-17.05,34.083,34.083,0,0,1,4.05-16.345,38.586,38.586,0,0,1,7.91-10.2,21.554,21.554,0,0,1,5.8-4.395l2.11-1.054a36.6,36.6,0,0,0,7.21-4.746,9.368,9.368,0,0,0,2.46-2.813,18.243,18.243,0,0,0,1.4-5.8q5.625,6.683,8.26,8.438a52.28,52.28,0,0,0,5.72,2.988,53.028,53.028,0,0,1,5.71,2.988,38.981,38.981,0,0,1,5.45,4.395h0Zm-4.83,51.5c-0.18-.46-0.5-0.52-0.97-0.17a15.8,15.8,0,0,1-3.69,1.58,18.756,18.756,0,0,1-5.98.88,16.576,16.576,0,0,1-4.92-.7,12.836,12.836,0,0,1-3.17-1.06l-0.87-.7a1.41,1.41,0,0,0-1.32.79,1.259,1.259,0,0,0,.08,1.49,12.494,12.494,0,0,0,6.68,2.46,25.166,25.166,0,0,0,8.09-.61,12.155,12.155,0,0,0,5.8-2.73A1.091,1.091,0,0,0,1272.23,1036.56Zm-12.57-6.15c-1.29,1.06-1.7,1.93-1.23,2.64a0.677,0.677,0,0,0,.79.17,4.777,4.777,0,0,0,1.32-1.05l0.35-.35a4.944,4.944,0,0,1,1.75-1.06,6.151,6.151,0,0,1,2.73-.52,4.013,4.013,0,0,1,2.55.7,7.378,7.378,0,0,1,1.05,1.4,2.077,2.077,0,0,0,.35.71,0.428,0.428,0,0,0,.53,0,1.493,1.493,0,0,0,.53-2.2,5.331,5.331,0,0,0-1.58-2.11,5.648,5.648,0,0,0-3.08-.61,7.621,7.621,0,0,0-3.25.52,9.322,9.322,0,0,0-2.81,1.76h0Zm23.46-1.32a15.5,15.5,0,0,0,2.73-6.59,12.542,12.542,0,0,0-.35-6.68,4,4,0,0,0-4.05-2.81,7.1,7.1,0,0,0-3.16,1.05q-1.23.705-3.96,2.55-2.715,1.845-3.95,2.55a7.347,7.347,0,0,1-3.34,1.23,6.92,6.92,0,0,1-2.99-.88c-0.7-.46-1.82-1.23-3.34-2.28a46.494,46.494,0,0,0-5.8-3.69,15.624,15.624,0,0,0-7.03-1.76,11.6,11.6,0,0,0-8.97,3.87,11.377,11.377,0,0,0-3.25,7.82,7.493,7.493,0,0,0,3.25,6.77q4.395,2.985,10.38,1.23a45,45,0,0,0,10.19-5.1q2.985-1.755,4.4-2.46a6.873,6.873,0,0,1,3.34-.97,5.964,5.964,0,0,1,2.98,1.49q1.23,1.065,3.52,3.34a25.266,25.266,0,0,0,2.64,2.64,3.948,3.948,0,0,0,2.28,1.23Q1281.1,1031.82,1283.12,1029.09Z" transform="translate(-1221 -966.25)"/>
</svg>
