<?xml version="1.0" encoding="utf-8"?>
<!-- Generator: Adobe Illustrator 22.1.0, SVG Export Plug-In . SVG Version: 6.00 Build 0)  -->
<svg version="1.1" id="Layer_1" xmlns="http://www.w3.org/2000/svg" xmlns:xlink="http://www.w3.org/1999/xlink" x="0px" y="0px"
	 viewBox="0 0 196.1 281.4" style="enable-background:new 0 0 196.1 281.4;" xml:space="preserve">
<style type="text/css">
	.st0{fill:#67A969;}
</style>
<g>
	<polyline class="st0" points="6.2,0 19.6,0 19.6,14.8 34.7,14.8 34.7,0 48.1,0 48.1,42.6 34.7,42.6 34.7,25.5 19.6,25.5 19.6,42.6 
		6.2,42.6 6.2,0 	"/>
	<polyline class="st0" points="53.5,0 94.7,0 94.7,10.1 80.8,10.1 80.8,42.6 67.5,42.6 67.5,10.1 53.5,10.1 53.5,0 	"/>
	<polyline class="st0" points="100.2,0 117.8,0 124.5,26 131.1,0 148.7,0 148.7,42.6 137.8,42.6 137.8,10.3 129.6,42.6 119.4,42.6 
		111.1,10.3 111.1,42.6 100.2,42.6 100.2,0 	"/>
	<polyline class="st0" points="157.2,0 170.5,0 170.5,32 191.8,32 191.8,42.6 157.2,42.6 157.2,0 	"/>
	<polyline class="st0" points="98.2,180.5 98,180.5 10.6,180.5 0.9,75.2 0,64.9 98,64.9 98.2,64.9 196.1,64.9 195.2,75.2 
		193.4,94.6 192.6,103.2 192.5,103.2 98.2,103.2 98,103.2 42.8,103.2 46.4,142.3 98,142.3 98.2,142.3 178.5,142.3 189,142.3 
		188.1,152.6 178.9,253.2 178.3,259.7 98.2,281.4 98.2,281.4 98,281.4 17.8,259.7 12.3,199.7 30.4,199.7 51.6,199.7 54.4,230.1 
		98,241.6 98,241.6 98,241.6 141.7,230.1 146.2,180.5 98.2,180.5 	"/>
</g>
</svg>
