<?xml version="1.0" encoding="utf-8"?>
<!-- Generator: Adobe Illustrator 22.1.0, SVG Export Plug-In . SVG Version: 6.00 Build 0)  -->
<svg version="1.1" id="Layer_1" xmlns="http://www.w3.org/2000/svg" xmlns:xlink="http://www.w3.org/1999/xlink" x="0px" y="0px"
	 viewBox="0 0 367.8 290.8" style="enable-background:new 0 0 367.8 290.8;" xml:space="preserve">
<style type="text/css">
	.st0{fill:#67A969;}
</style>
<g>
	<path class="st0" d="M21.6,0.6h13.2V24c0,4.9-0.4,8.6-1.3,11.2c-0.9,2.6-2.6,4.7-5.3,6.5c-2.6,1.8-6,2.7-10.2,2.7
		c-4.4,0-7.8-0.6-10.2-1.7c-2.4-1.2-4.3-2.9-5.6-5.1c-1.3-2.2-2.1-5-2.3-8.3l13.2-1.6c0,1.8,0.2,3.1,0.5,4c0.3,0.9,0.8,1.6,1.6,2.1
		c0.5,0.4,1.2,0.5,2.1,0.5c1.5,0,2.5-0.5,3.2-1.6c0.7-1.1,1-3,1-5.6V0.6"/>
	<path class="st0" d="M62.1,29.4c-1.6,0.6-3.2,1-4.9,1.5c-2.3,0.6-3.8,1.2-4.4,1.8c-0.6,0.6-0.9,1.3-0.9,2.1c0,0.9,0.3,1.6,0.9,2.2
		c0.6,0.6,1.5,0.8,2.7,0.8c1.3,0,2.4-0.3,3.5-0.9c1.1-0.6,1.9-1.4,2.3-2.2c0.5-0.9,0.7-2,0.7-3.4V29.4 M53.1,23.4l-12-1.2
		c0.4-2.1,1-3.8,1.8-5c0.8-1.2,2-2.3,3.5-3.2c1.1-0.6,2.6-1.1,4.5-1.5c1.9-0.4,3.9-0.5,6.1-0.5c3.5,0,6.4,0.2,8.5,0.6
		c2.1,0.4,3.9,1.2,5.4,2.5c1,0.9,1.8,2.1,2.4,3.7c0.6,1.6,0.9,3.1,0.9,4.6v13.7c0,1.5,0.1,2.6,0.3,3.4c0.2,0.8,0.6,1.9,1.2,3.2H64.1
		c-0.5-0.8-0.8-1.4-0.9-1.9c-0.1-0.4-0.3-1.1-0.4-2c-1.5,1.5-3.1,2.6-4.6,3.2c-2.1,0.9-4.5,1.3-7.2,1.3c-3.6,0-6.4-0.8-8.3-2.5
		c-1.9-1.7-2.8-3.8-2.8-6.2c0-2.3,0.7-4.2,2-5.7c1.4-1.5,3.9-2.6,7.5-3.3c4.4-0.9,7.2-1.5,8.5-1.8c1.3-0.4,2.7-0.8,4.1-1.4
		c0-1.3-0.3-2.3-0.8-2.8c-0.5-0.5-1.5-0.8-2.8-0.8c-1.7,0-3,0.3-3.8,0.9C54,21.2,53.5,22.1,53.1,23.4z"/>
	<polyline class="st0" points="76.2,12.6 88.5,12.6 94.5,32.4 100.5,12.6 112.8,12.6 99.6,43.8 89,43.8 76.2,12.6 	"/>
	<path class="st0" d="M137.4,29.4c-1.6,0.6-3.2,1-4.9,1.5c-2.3,0.6-3.8,1.2-4.4,1.8c-0.6,0.6-0.9,1.3-0.9,2.1c0,0.9,0.3,1.6,0.9,2.2
		c0.6,0.6,1.5,0.8,2.7,0.8c1.3,0,2.4-0.3,3.5-0.9c1.1-0.6,1.9-1.4,2.3-2.2c0.5-0.9,0.7-2,0.7-3.4L137.4,29.4 M128.4,23.4l-12-1.2
		c0.4-2.1,1-3.8,1.8-5c0.8-1.2,2-2.3,3.5-3.2c1.1-0.6,2.6-1.1,4.5-1.5c1.9-0.4,3.9-0.5,6.1-0.5c3.5,0,6.4,0.2,8.5,0.6
		c2.1,0.4,3.9,1.2,5.4,2.5c1,0.9,1.8,2.1,2.4,3.7c0.6,1.6,0.9,3.1,0.9,4.6v13.7c0,1.5,0.1,2.6,0.3,3.4c0.2,0.8,0.6,1.9,1.2,3.2
		h-11.5c-0.5-0.8-0.8-1.4-0.9-1.9c-0.1-0.4-0.3-1.1-0.4-2c-1.5,1.5-3.1,2.6-4.6,3.2c-2.1,0.9-4.5,1.3-7.2,1.3
		c-3.6,0-6.4-0.8-8.3-2.5c-1.9-1.7-2.8-3.8-2.8-6.2c0-2.3,0.7-4.2,2-5.7c1.4-1.5,3.9-2.6,7.5-3.3c4.4-0.9,7.2-1.5,8.5-1.8
		c1.3-0.4,2.7-0.8,4.1-1.4c0-1.3-0.3-2.3-0.8-2.8c-0.5-0.5-1.5-0.8-2.8-0.8c-1.7,0-3,0.3-3.8,0.9C129.3,21.2,128.8,22.1,128.4,23.4z
		"/>
	<path class="st0" d="M174.6,29.6l13.2-0.8c0.3,2,0.8,3.6,1.6,4.6c1.3,1.7,3.1,2.6,5.5,2.6c1.8,0,3.1-0.4,4.1-1.3
		c1-0.9,1.4-1.9,1.4-3.1c0-1.1-0.4-2.1-1.3-3c-0.9-0.9-3.1-1.7-6.6-2.5c-5.8-1.3-9.9-3.1-12.4-5.2c-2.5-2.2-3.7-4.9-3.7-8.3
		c0-2.2,0.6-4.3,1.9-6.2c1.3-2,3.2-3.5,5.8-4.6c2.6-1.1,6.1-1.7,10.6-1.7c5.5,0,9.7,1,12.6,3.1c2.9,2.1,4.6,5.4,5.2,9.9l-13.2,0.8
		c-0.3-2.1-0.9-3.6-1.8-4.6c-0.9-1-2.2-1.4-3.8-1.4c-1.3,0-2.3,0.3-3,1c-0.7,0.7-1,1.5-1,2.4c0,0.7,0.2,1.3,0.5,1.9
		c0.3,0.6,1.6,1.1,4,1.6c5.8,1.3,9.9,2.5,12.4,3.8c2.5,1.3,4.3,2.9,5.5,4.8c1.1,1.9,1.7,4,1.7,6.4c0,2.8-0.8,5.3-2.3,7.6
		c-1.5,2.3-3.7,4.1-6.4,5.3c-2.7,1.2-6.2,1.8-10.4,1.8c-7.3,0-12.4-1.4-15.2-4.2C176.6,37.4,175,33.9,174.6,29.6"/>
	<path class="st0" d="M242.4,31.8l12,1.2c-0.6,2.3-1.7,4.3-3.1,6c-1.4,1.7-3.3,3-5.5,4c-2.2,0.9-5,1.4-8.5,1.4c-3.3,0-6-0.3-8.3-0.9
		c-2.2-0.6-4.1-1.6-5.7-3c-1.6-1.4-2.8-3-3.7-4.8c-0.9-1.8-1.4-4.3-1.4-7.3c0-3.2,0.5-5.8,1.6-8c0.8-1.6,1.9-3,3.3-4.2
		c1.4-1.2,2.8-2.2,4.3-2.8c2.3-0.9,5.3-1.4,8.9-1.4c5.1,0,9,0.9,11.6,2.6c2.7,1.7,4.5,4.3,5.6,7.6l-12,1.8c-0.3-1.4-0.9-2.4-1.8-3.1
		s-2-1.1-3.5-1.1c-1.8,0-3.3,0.7-4.4,2.2c-1.1,1.5-1.7,3.7-1.7,6.6c0,2.6,0.6,4.6,1.7,6c1.1,1.4,2.6,2,4.4,2c1.5,0,2.7-0.4,3.7-1.2
		S241.9,33.4,242.4,31.8"/>
	<path class="st0" d="M259.8,12.6H271V18c1.1-2.3,2.2-3.8,3.3-4.7c1.1-0.9,2.6-1.3,4.3-1.3c1.8,0,3.7,0.5,5.8,1.6l-3.7,8.9
		c-1.4-0.6-2.5-0.9-3.4-0.9c-1.6,0-2.8,0.6-3.7,1.9c-1.2,1.8-1.9,5.1-1.9,10v10.3h-12L259.8,12.6"/>
	<path class="st0" d="M286.8,12.6h12v31.2h-12V12.6 M286.8,0.6h12V9h-12V0.6z"/>
	<path class="st0" d="M317.9,28.4c0,2.8,0.5,4.9,1.5,6.2c1,1.3,2.3,2,3.9,2c1.4,0,2.5-0.6,3.5-1.9c0.9-1.3,1.4-3.5,1.4-6.6
		c0-2.9-0.5-4.9-1.5-6.3c-1-1.3-2.2-2-3.5-2c-1.5,0-2.8,0.7-3.8,2C318.4,23.2,317.9,25.4,317.9,28.4 M306,55.8V12.6h11.1v4.1
		c1.5-1.7,3-2.9,4.2-3.5c1.7-0.8,3.7-1.2,5.8-1.2c4.2,0,7.4,1.6,9.6,4.8c2.3,3.2,3.4,7.1,3.4,11.8c0,5.2-1.2,9.1-3.7,11.8
		c-2.5,2.7-5.6,4.1-9.4,4.1c-1.8,0-3.5-0.3-5-0.8c-1.5-0.5-2.9-1.4-4.1-2.4v14.7H306z"/>
	<path class="st0" d="M360.6,0.6v12h6.6v9h-6.6v11.3c0,1.4,0.1,2.3,0.4,2.7c0.4,0.7,1.1,1,2.1,1c0.9,0,2.2-0.3,3.8-0.8l0.9,7.7
		c-3,0.6-5.8,0.9-8.4,0.9c-3,0-5.2-0.4-6.6-1.1c-1.4-0.7-2.5-1.9-3.2-3.4c-0.7-1.5-1-4-1-7.4V21.6h-4.2v-9h4.2V6.8L360.6,0.6"/>
	<polyline class="st0" points="234.6,157.6 270.2,157.7 267.2,181.7 265.6,194.6 257.6,258.8 163.6,290.8 77.5,258.8 82.8,216.1 
		118.4,216.1 116.2,233.7 168.2,253 225.1,233.7 230.1,193.4 120.7,193.4 85.2,193.2 88.1,169.3 89.8,156.4 97.7,92.2 191.8,60.2 
		277.8,92.2 272.5,134.9 237,134.9 239.1,117.3 187.1,97.9 130.2,117.3 125.2,157.6 234.6,157.6 	"/>
</g>
</svg>
